<svg width="134.999329" height="40.000000" viewBox="0 0 134.999 40" fill="none" xmlns="http://www.w3.org/2000/svg" xmlns:xlink="http://www.w3.org/1999/xlink">
	<desc>
			Created with Pixso.
	</desc>
	<defs>
		<linearGradient id="paint_linear_2_152_0" x1="21.799528" y1="8.709766" x2="5.017208" y2="25.492092" gradientUnits="userSpaceOnUse">
			<stop stop-color="#00A0FF"/>
			<stop offset="0.006570" stop-color="#00A1FF"/>
			<stop offset="0.260100" stop-color="#00BEFF"/>
			<stop offset="0.512200" stop-color="#00D2FF"/>
			<stop offset="0.760400" stop-color="#00DFFF"/>
			<stop offset="1.000000" stop-color="#00E3FF"/>
		</linearGradient>
		<linearGradient id="paint_linear_2_153_0" x1="33.834118" y1="20.001518" x2="9.637341" y2="20.001518" gradientUnits="userSpaceOnUse">
			<stop stop-color="#FFE000"/>
			<stop offset="0.408700" stop-color="#FFBD00"/>
			<stop offset="0.775400" stop-color="#FFA500"/>
			<stop offset="1.000000" stop-color="#FF9C00"/>
		</linearGradient>
		<linearGradient id="paint_linear_2_154_0" x1="24.826710" y1="22.296124" x2="2.068552" y2="45.054295" gradientUnits="userSpaceOnUse">
			<stop stop-color="#FF3A44"/>
			<stop offset="1.000000" stop-color="#C31162"/>
		</linearGradient>
		<linearGradient id="paint_linear_2_155_0" x1="7.297189" y1="0.176268" x2="17.459652" y2="10.338738" gradientUnits="userSpaceOnUse">
			<stop stop-color="#32A071"/>
			<stop offset="0.068500" stop-color="#2DA771"/>
			<stop offset="0.476200" stop-color="#15CF74"/>
			<stop offset="0.800900" stop-color="#06E775"/>
			<stop offset="1.000000" stop-color="#00F076"/>
		</linearGradient>
	</defs>
	<path id="Vector" d="M4.99997 0L129.999 0C132.761 0 134.999 2.23859 134.999 5L134.999 34.9998C134.999 37.7612 132.761 39.9998 129.999 39.9998L4.99997 39.9998C2.23856 39.9998 0 37.7612 0 34.9998L0 5C0 2.23859 2.23856 0 4.99997 0Z" fill="#000000" fill-opacity="1.000000" fill-rule="evenodd"/>
	<path id="Vector" d="M129.999 0.799988C131.113 0.80127 132.18 1.2442 132.968 2.03162C133.755 2.81903 134.198 3.8866 134.199 5.00018L134.199 35C134.198 36.1135 133.755 37.1811 132.968 37.9685C132.18 38.7559 131.113 39.1989 129.999 39.2002L4.99997 39.2002C3.88644 39.1989 2.81888 38.756 2.03149 37.9686C1.24411 37.1812 0.801239 36.1135 0.799988 35L0.799988 5.00018C0.801208 3.8866 1.24408 2.81903 2.03146 2.03162C2.81885 1.2442 3.88641 0.80127 4.99997 0.799988L129.999 0.799988ZM129.999 0.000183105L4.99997 0.000183105C3.67508 0.00408936 2.40558 0.532104 1.46875 1.46893C0.531891 2.40576 0.00387573 3.67529 0 5.00018L0 35C0.00387573 36.3249 0.531891 37.5944 1.46875 38.5312C2.40558 39.4681 3.67508 39.9961 4.99997 40L129.999 40C131.324 39.9961 132.594 39.4681 133.531 38.5312C134.467 37.5944 134.995 36.3249 134.999 35L134.999 5.00018C134.995 3.67529 134.467 2.40576 133.531 1.46893C132.594 0.532104 131.324 0.00408936 129.999 0.000183105Z" fill="#1D1D1D" fill-opacity="1.000000" fill-rule="nonzero"/>
	<path id="Vector" d="M47.4182 10.2433C47.4363 10.6102 47.3796 10.977 47.2515 11.3214C47.1234 11.6656 46.9265 11.9803 46.6729 12.2462C46.3887 12.5409 46.0455 12.7723 45.6656 12.9253C45.2858 13.0783 44.878 13.1494 44.4688 13.1339C44.0571 13.1375 43.6487 13.0589 43.2678 12.9025C42.8868 12.7461 42.541 12.5151 42.2505 12.2231C41.9601 11.9312 41.7311 11.5841 41.5767 11.2024C41.4224 10.8206 41.3459 10.4118 41.3517 10.0001C41.3459 9.58832 41.4224 9.1795 41.5768 8.79773C41.7311 8.41595 41.9603 8.06891 42.2507 7.77692C42.541 7.48492 42.8868 7.25391 43.2678 7.09741C43.6487 6.94098 44.0571 6.86218 44.4688 6.86578C44.8922 6.8645 45.3113 6.95007 45.7003 7.11725C46.0616 7.26373 46.3832 7.49341 46.6389 7.78766L46.1115 8.31549C45.9105 8.07892 45.6578 7.89172 45.373 7.76825C45.0882 7.64484 44.7789 7.5885 44.4688 7.60358C44.1567 7.60199 43.8476 7.66333 43.5598 7.78406C43.272 7.90479 43.0115 8.08234 42.7939 8.30609C42.5764 8.52985 42.4062 8.79523 42.2937 9.0863C42.1812 9.37738 42.1285 9.68817 42.1389 10.0001C42.1314 10.4673 42.2629 10.9261 42.5166 11.3185C42.7703 11.7109 43.1348 12.0191 43.5638 12.204C43.993 12.389 44.4673 12.4424 44.9268 12.3574C45.3862 12.2724 45.8101 12.0529 46.1447 11.7266C46.4525 11.3949 46.631 10.9636 46.6475 10.5112L44.4688 10.5112L44.4688 9.79059L47.3761 9.79059C47.4036 9.93988 47.4177 10.0914 47.4182 10.2433Z" fill="#FFFFFF" fill-opacity="1.000000" fill-rule="nonzero"/>
	<path id="Vector" d="M47.2515 11.3214C47.1234 11.6656 46.9265 11.9803 46.6729 12.2462C46.3887 12.5409 46.0455 12.7723 45.6656 12.9253C45.2858 13.0783 44.878 13.1494 44.4688 13.1339C44.0571 13.1375 43.6487 13.0589 43.2678 12.9025C42.8868 12.7461 42.541 12.5151 42.2505 12.2231C41.9601 11.9312 41.7311 11.5841 41.5767 11.2024C41.4224 10.8206 41.3459 10.4118 41.3517 10.0001C41.3459 9.58832 41.4224 9.1795 41.5768 8.79773C41.7311 8.41595 41.9603 8.06891 42.2507 7.77692C42.541 7.48492 42.8868 7.25391 43.2678 7.09741C43.6487 6.94098 44.0571 6.86218 44.4688 6.86578C44.8922 6.8645 45.3113 6.95007 45.7003 7.11725C46.0616 7.26373 46.3832 7.49341 46.6389 7.78766L46.1115 8.31549C45.9105 8.07892 45.6578 7.89172 45.373 7.76825C45.0882 7.64484 44.7789 7.5885 44.4688 7.60358C44.1567 7.60199 43.8476 7.66333 43.5598 7.78406C43.272 7.90479 43.0115 8.08234 42.7939 8.30609C42.5764 8.52985 42.4062 8.79523 42.2937 9.0863C42.1812 9.37738 42.1285 9.68817 42.1389 10.0001C42.1314 10.4673 42.2629 10.9261 42.5166 11.3185C42.7703 11.7109 43.1348 12.0191 43.5638 12.204C43.993 12.389 44.4673 12.4424 44.9268 12.3574C45.3862 12.2724 45.8101 12.0529 46.1447 11.7266C46.4525 11.3949 46.631 10.9636 46.6475 10.5112L44.4688 10.5112L44.4688 9.79059L47.3761 9.79059C47.4036 9.93988 47.4177 10.0914 47.4182 10.2433C47.4363 10.6102 47.3796 10.977 47.2515 11.3214Z" stroke="#FFFFFF" stroke-opacity="1.000000" stroke-width="0.200000"/>
	<path id="Vector" d="M52.0274 7.73737L49.295 7.73737L49.295 9.63965L51.7589 9.63965L51.7589 10.3605L49.295 10.3605L49.295 12.2628L52.0274 12.2628L52.0274 13L48.5245 13L48.5245 7.00006L52.0274 7.00006L52.0274 7.73737Z" fill="#FFFFFF" fill-opacity="1.000000" fill-rule="nonzero"/>
	<path id="Vector" d="M49.295 7.73737L49.295 9.63965L51.7589 9.63965L51.7589 10.3605L49.295 10.3605L49.295 12.2628L52.0274 12.2628L52.0274 13L48.5245 13L48.5245 7.00006L52.0274 7.00006L52.0274 7.73737L49.295 7.73737Z" stroke="#FFFFFF" stroke-opacity="1.000000" stroke-width="0.200000"/>
	<path id="Vector" d="M55.2784 13L54.507 13L54.507 7.73737L52.8312 7.73737L52.8312 7.00006L56.9542 7.00006L56.9542 7.73737L55.2784 7.73737L55.2784 13Z" fill="#FFFFFF" fill-opacity="1.000000" fill-rule="nonzero"/>
	<path id="Vector" d="M54.507 13L54.507 7.73737L52.8312 7.73737L52.8312 7.00006L56.9542 7.00006L56.9542 7.73737L55.2784 7.73737L55.2784 13L54.507 13Z" stroke="#FFFFFF" stroke-opacity="1.000000" stroke-width="0.200000"/>
	<path id="Vector" d="M59.9376 13L59.9376 7.00006L60.7081 7.00006L60.7081 13L59.9376 13Z" fill="#FFFFFF" fill-opacity="1.000000" fill-rule="nonzero"/>
	<path id="Vector" d="M59.9376 7.00006L60.7081 7.00006L60.7081 13L59.9376 13L59.9376 7.00006Z" stroke="#FFFFFF" stroke-opacity="1.000000" stroke-width="0.200000"/>
	<path id="Vector" d="M64.128 13L63.3565 13L63.3565 7.73737L61.6808 7.73737L61.6808 7.00006L65.8038 7.00006L65.8038 7.73737L64.128 7.73737L64.128 13Z" fill="#FFFFFF" fill-opacity="1.000000" fill-rule="nonzero"/>
	<path id="Vector" d="M63.3565 13L63.3565 7.73737L61.6808 7.73737L61.6808 7.00006L65.8038 7.00006L65.8038 7.73737L64.128 7.73737L64.128 13L63.3565 13Z" stroke="#FFFFFF" stroke-opacity="1.000000" stroke-width="0.200000"/>
	<path id="Vector" d="M73.6089 12.2247C73.0249 12.8069 72.2339 13.1339 71.4092 13.1339C70.5845 13.1339 69.7935 12.8069 69.2095 12.2247C68.9206 11.932 68.6935 11.5843 68.5417 11.2021C68.3898 10.8199 68.3164 10.4112 68.3257 10.0001C68.3164 9.58893 68.3898 9.18018 68.5417 8.79797C68.6935 8.41583 68.9206 8.06812 69.2095 7.77545C69.4982 7.48676 69.8409 7.25775 70.2182 7.10168C70.5955 6.94556 70.9998 6.86542 71.4081 6.86578C71.8163 6.86615 72.2205 6.94702 72.5975 7.10382C72.9745 7.26056 73.3168 7.49011 73.605 7.77936C73.8941 8.07123 74.1217 8.41821 74.2742 8.79968C74.4266 9.18115 74.501 9.58936 74.4927 10.0001C74.5018 10.4111 74.4282 10.8199 74.2764 11.202C74.1246 11.5841 73.8976 11.9319 73.6089 12.2247ZM69.7788 11.7222C70.2114 12.1541 70.7975 12.3965 71.4087 12.3965C72.0199 12.3965 72.6061 12.1541 73.0386 11.7222C73.2604 11.4952 73.4338 11.2255 73.5485 10.9295C73.6631 10.6335 73.7166 10.3173 73.7056 10.0001C73.7166 9.6828 73.6631 9.36664 73.5485 9.07068C73.4338 8.77466 73.2604 8.50494 73.0386 8.27789C72.6061 7.84607 72.0199 7.60358 71.4087 7.60358C70.7975 7.60358 70.2114 7.84607 69.7788 8.27789C69.5573 8.50513 69.3842 8.7749 69.2697 9.07086C69.1552 9.36682 69.1019 9.68292 69.1129 10.0001C69.1019 10.3172 69.1552 10.6333 69.2697 10.9293C69.3842 11.2253 69.5573 11.495 69.7788 11.7222Z" fill="#FFFFFF" fill-opacity="1.000000" fill-rule="nonzero"/>
	<path id="Vector" d="M71.4092 13.1339C70.5845 13.1339 69.7935 12.8069 69.2095 12.2247C68.9206 11.932 68.6935 11.5843 68.5417 11.2021C68.3898 10.8199 68.3164 10.4112 68.3257 10.0001C68.3164 9.58893 68.3898 9.18018 68.5417 8.79797C68.6935 8.41583 68.9206 8.06812 69.2095 7.77545C69.4982 7.48676 69.8409 7.25775 70.2182 7.10168C70.5955 6.94556 70.9998 6.86542 71.4081 6.86578C71.8163 6.86615 72.2205 6.94702 72.5975 7.10382C72.9745 7.26056 73.3168 7.49011 73.605 7.77936C73.8941 8.07123 74.1217 8.41821 74.2742 8.79968C74.4266 9.18115 74.501 9.58936 74.4927 10.0001C74.5018 10.4111 74.4282 10.8199 74.2764 11.202C74.1246 11.5841 73.8976 11.9319 73.6089 12.2247C73.0249 12.8069 72.2339 13.1339 71.4092 13.1339ZM71.4087 12.3965C72.0199 12.3965 72.6061 12.1541 73.0386 11.7222C73.2604 11.4952 73.4338 11.2255 73.5485 10.9295C73.6631 10.6335 73.7166 10.3173 73.7056 10.0001C73.7166 9.6828 73.6631 9.36664 73.5485 9.07068C73.4338 8.77466 73.2604 8.50494 73.0386 8.27789C72.6061 7.84607 72.0199 7.60358 71.4087 7.60358C70.7975 7.60358 70.2114 7.84607 69.7788 8.27789C69.5573 8.50513 69.3842 8.7749 69.2697 9.07086C69.1552 9.36682 69.1019 9.68292 69.1129 10.0001C69.1019 10.3172 69.1552 10.6333 69.2697 10.9293C69.3842 11.2253 69.5573 11.495 69.7788 11.7222C70.2114 12.1541 70.7975 12.3965 71.4087 12.3965Z" stroke="#FFFFFF" stroke-opacity="1.000000" stroke-width="0.200000"/>
	<path id="Vector" d="M75.5747 13L75.5747 7.00006L76.5132 7.00006L79.4292 11.6675L79.4624 11.6675L79.4292 10.5112L79.4292 7.00006L80.2007 7.00006L80.2007 13L79.396 13L76.3452 8.10645L76.312 8.10645L76.3452 9.26276L76.3452 13L75.5747 13Z" fill="#FFFFFF" fill-opacity="1.000000" fill-rule="nonzero"/>
	<path id="Vector" d="M75.5747 7.00006L76.5132 7.00006L79.4292 11.6675L79.4624 11.6675L79.4292 10.5112L79.4292 7.00006L80.2007 7.00006L80.2007 13L79.396 13L76.3452 8.10645L76.312 8.10645L76.3452 9.26276L76.3452 13L75.5747 13L75.5747 7.00006Z" stroke="#FFFFFF" stroke-opacity="1.000000" stroke-width="0.200000"/>
	<path id="Vector" d="M68.1355 21.7516C67.295 21.7548 66.4742 22.0069 65.777 22.4762C65.0797 22.9454 64.537 23.6108 64.2176 24.3882C63.8981 25.1657 63.8162 26.0204 63.9822 26.8444C64.1481 27.6683 64.5544 28.4246 65.1499 29.0178C65.7454 29.611 66.5032 30.0145 67.3278 30.1773C68.1524 30.3401 69.0068 30.2549 69.783 29.9326C70.5592 29.6102 71.2225 29.065 71.6891 28.3659C72.1558 27.6668 72.4048 26.8452 72.4048 26.0046C72.413 25.4424 72.3081 24.8844 72.0963 24.3636C71.8845 23.8428 71.5701 23.3699 71.1717 22.9731C70.7734 22.5763 70.2993 22.2637 69.7777 22.0538C69.2561 21.8439 68.6976 21.7411 68.1355 21.7516ZM68.1355 28.5823C67.6179 28.6193 67.1011 28.4995 66.6525 28.2386C66.204 27.9777 65.8443 27.5878 65.6204 27.1196C65.3965 26.6515 65.3188 26.1268 65.3973 25.6138C65.4758 25.1008 65.7069 24.6234 66.0605 24.2436C66.4142 23.8638 66.874 23.5993 67.3801 23.4846C67.8861 23.3698 68.415 23.41 68.8979 23.6C69.3809 23.79 69.7953 24.121 70.0875 24.5499C70.3796 24.9788 70.5359 25.4857 70.5359 26.0046C70.5516 26.3325 70.5015 26.6602 70.3887 26.9684C70.2759 27.2766 70.1025 27.5591 69.8788 27.7993C69.6552 28.0395 69.3857 28.2325 69.0863 28.367C68.7869 28.5015 68.4636 28.5747 68.1355 28.5823ZM58.8221 21.7516C57.9816 21.7547 57.1609 22.0068 56.4636 22.4761C55.7662 22.9454 55.2236 23.6108 54.9042 24.3882C54.5847 25.1656 54.5027 26.0203 54.6687 26.8443C54.8346 27.6683 55.241 28.4246 55.8364 29.0178C56.4319 29.611 57.1898 30.0145 58.0143 30.1773C58.8389 30.3401 59.6933 30.2549 60.4695 29.9326C61.2457 29.6102 61.9091 29.065 62.3757 28.3659C62.8423 27.6668 63.0913 26.8452 63.0913 26.0046C63.0995 25.4425 62.9947 24.8844 62.7828 24.3636C62.571 23.8428 62.2566 23.3699 61.8583 22.9731C61.46 22.5763 60.986 22.2637 60.4644 22.0538C59.9427 21.844 59.3843 21.7411 58.8221 21.7516ZM58.8221 28.5823C58.3045 28.6193 57.7878 28.4995 57.3392 28.2386C56.8906 27.9777 56.5309 27.5878 56.3071 27.1196C56.0832 26.6515 56.0054 26.1268 56.0839 25.6138C56.1624 25.1008 56.3936 24.6234 56.7472 24.2436C57.1008 23.8638 57.5606 23.5993 58.0667 23.4846C58.5728 23.3698 59.1017 23.41 59.5846 23.6C60.0675 23.79 60.482 24.121 60.7741 24.5499C61.0663 24.9788 61.2225 25.4857 61.2225 26.0046C61.2382 26.3325 61.1882 26.6602 61.0754 26.9684C60.9625 27.2766 60.7892 27.5591 60.5655 27.7993C60.3418 28.0395 60.0723 28.2325 59.7729 28.367C59.4736 28.5015 59.1503 28.5747 58.8221 28.5823ZM47.7434 23.0566L47.7434 24.8608L52.0611 24.8608C51.9988 25.7072 51.6525 26.5076 51.0782 27.1324C50.6456 27.5735 50.1252 27.9189 49.5508 28.1464C48.9764 28.374 48.3607 28.4785 47.7434 28.4534C46.4814 28.4363 45.2769 27.923 44.3904 27.0245C43.504 26.126 43.0071 24.9147 43.0071 23.6525C43.0071 22.3904 43.504 21.1791 44.3904 20.2806C45.2769 19.3821 46.4814 18.8688 47.7434 18.8517C48.9556 18.8358 50.1251 19.299 50.9978 20.1404L52.2704 18.8678C51.675 18.2783 50.9679 17.8136 50.1905 17.501C49.4131 17.1884 48.5812 17.0341 47.7434 17.0473C46.8679 17.0345 45.9986 17.196 45.186 17.5222C44.3735 17.8484 43.6339 18.3329 43.0103 18.9476C42.3866 19.5622 41.8914 20.2946 41.5533 21.1024C41.2153 21.9101 41.0413 22.777 41.0413 23.6525C41.0413 24.5281 41.2153 25.395 41.5533 26.2028C41.8914 27.0104 42.3866 27.7429 43.0103 28.3575C43.6339 28.9722 44.3735 29.4567 45.186 29.7829C45.9986 30.1091 46.8679 30.2706 47.7434 30.2578C48.5989 30.2933 49.4521 30.1465 50.2465 29.827C51.0408 29.5076 51.7582 29.0229 52.351 28.4052C53.4034 27.2564 53.9643 25.7413 53.9138 24.1843C53.9179 23.8061 53.8855 23.4285 53.817 23.0566L47.7434 23.0566ZM93.0515 24.4581C92.7959 23.6877 92.3093 23.0146 91.6579 22.5305C91.0065 22.0463 90.2218 21.7743 89.4105 21.7516C88.864 21.7549 88.3239 21.8691 87.8228 22.0872C87.3218 22.3052 86.8701 22.6226 86.4951 23.0201C86.1202 23.4177 85.8297 23.8871 85.6414 24.4001C85.4529 24.9131 85.3705 25.4589 85.3991 26.0046C85.3868 26.5638 85.4873 27.1198 85.6946 27.6392C85.902 28.1587 86.2119 28.631 86.6059 29.028C86.9999 29.425 87.4698 29.7385 87.9877 29.9498C88.5056 30.1611 89.0607 30.2659 89.62 30.2578C90.3206 30.2617 91.0113 30.0915 91.6299 29.7625C92.2485 29.4335 92.7757 28.9561 93.1642 28.3729L91.7143 27.4063C91.4971 27.7671 91.1898 28.0651 90.8226 28.2713C90.4555 28.4775 90.0411 28.5847 89.62 28.5823C89.1867 28.5989 88.7584 28.4849 88.3907 28.2551C88.0229 28.0253 87.7328 27.6902 87.5578 27.2935L93.2449 24.9415L93.0515 24.4581ZM87.2518 25.8759C87.2318 25.5663 87.2737 25.2559 87.3751 24.9627C87.4765 24.6695 87.6353 24.3995 87.8423 24.1685C88.0494 23.9375 88.3004 23.7501 88.5807 23.6172C88.861 23.4844 89.165 23.4088 89.4749 23.3948C89.7975 23.3736 90.1194 23.4479 90.4001 23.6083C90.6809 23.7687 90.9083 24.0083 91.0538 24.2971L87.2518 25.8759ZM82.6281 30L84.4968 30L84.4968 17.4985L82.6281 17.4985L82.6281 30ZM79.567 22.7021L79.5026 22.7021C79.2185 22.3934 78.8718 22.1489 78.4856 21.985C78.0994 21.821 77.6827 21.7415 77.2632 21.7516C76.1666 21.7982 75.1303 22.2667 74.3708 23.0593C73.6113 23.8517 73.1873 24.907 73.1873 26.0047C73.1873 27.1024 73.6113 28.1577 74.3708 28.9501C75.1303 29.7427 76.1666 30.2111 77.2632 30.2578C77.6843 30.269 78.1028 30.1884 78.4895 30.0214C78.8763 29.8545 79.222 29.6053 79.5026 29.2912L79.567 29.2912L79.567 29.9034C79.567 31.5306 78.6971 32.4005 77.2955 32.4005C76.8283 32.3893 76.3751 32.2393 75.9935 31.9696C75.6119 31.7 75.3193 31.3228 75.1528 30.8861L73.5256 31.5628C73.8323 32.3095 74.355 32.9476 75.0266 33.3953C75.6982 33.8431 76.4883 34.0801 77.2955 34.076C79.4865 34.076 81.3392 32.7872 81.3392 29.6456L81.3392 22.0093L79.567 22.0093L79.567 22.7021ZM77.4244 28.5823C76.7785 28.5276 76.1767 28.2323 75.7381 27.7549C75.2995 27.2776 75.0562 26.653 75.0562 26.0047C75.0562 25.3564 75.2995 24.7318 75.7381 24.2545C76.1767 23.7771 76.7785 23.4818 77.4244 23.4271C77.7458 23.4427 78.0607 23.5229 78.3504 23.663C78.6401 23.803 78.8986 23.9998 79.1106 24.2419C79.3226 24.4839 79.4836 24.7662 79.5842 25.0718C79.6848 25.3774 79.7228 25.7001 79.6959 26.0208C79.7211 26.3394 79.6816 26.6598 79.5801 26.9628C79.4785 27.2659 79.3169 27.5453 79.1049 27.7845C78.8928 28.0236 78.6346 28.2175 78.3459 28.3546C78.0572 28.4917 77.7438 28.5692 77.4244 28.5823ZM101.805 17.4987L97.3342 17.4987L97.3342 30L99.1998 30L99.1998 25.2637L101.805 25.2637C102.333 25.2926 102.861 25.2136 103.357 25.0316C103.854 24.8495 104.307 24.5682 104.691 24.2049C105.075 23.8415 105.381 23.4037 105.59 22.9182C105.799 22.4327 105.906 21.9097 105.906 21.3812C105.906 20.8526 105.799 20.3297 105.59 19.8441C105.381 19.3586 105.075 18.9208 104.691 18.5574C104.307 18.1941 103.854 17.9128 103.357 17.7308C102.861 17.5487 102.333 17.4697 101.805 17.4987ZM101.854 23.5239L99.1998 23.5239L99.1998 19.2386L101.854 19.2386C102.139 19.2327 102.422 19.2837 102.687 19.3887C102.952 19.4938 103.194 19.6506 103.398 19.8502C103.601 20.0497 103.763 20.288 103.874 20.5508C103.984 20.8137 104.041 21.0961 104.041 21.3812C104.041 21.6664 103.984 21.9487 103.874 22.2116C103.763 22.4745 103.601 22.7127 103.398 22.9122C103.194 23.1118 102.952 23.2687 102.687 23.3737C102.422 23.4787 102.139 23.5298 101.854 23.5239ZM113.385 21.7286C112.704 21.6888 112.026 21.8488 111.435 22.1887C110.844 22.5287 110.364 23.0339 110.056 23.6425L111.712 24.334C111.877 24.032 112.125 23.7844 112.428 23.6216C112.731 23.4588 113.075 23.3878 113.417 23.4172C113.891 23.371 114.363 23.5144 114.731 23.8159C115.099 24.1174 115.332 24.5524 115.379 25.0256L115.379 25.1542C114.78 24.8359 114.112 24.6702 113.433 24.6718C111.648 24.6718 109.831 25.6528 109.831 27.4863C109.848 27.8727 109.943 28.2517 110.109 28.6008C110.276 28.9499 110.511 29.2619 110.801 29.5184C111.09 29.775 111.428 29.9707 111.795 30.0941C112.161 30.2174 112.549 30.2659 112.935 30.2365C113.405 30.2642 113.873 30.1653 114.292 29.9504C114.711 29.7354 115.064 29.4122 115.315 29.0142L115.379 29.0142L115.379 29.9792L117.181 29.9792L117.181 25.1865C117.181 22.967 115.524 21.7286 113.385 21.7286ZM113.16 28.58C112.549 28.58 111.696 28.2744 111.696 27.5184C111.696 26.5535 112.758 26.1835 113.675 26.1835C114.27 26.1677 114.859 26.3121 115.379 26.6017C115.311 27.144 115.048 27.6431 114.64 28.0067C114.232 28.3704 113.706 28.574 113.16 28.58ZM123.743 22.002L121.604 27.4219L121.539 27.4219L119.32 22.002L117.309 22.002L120.639 29.5771L118.741 33.7909L120.687 33.7909L125.817 22.002L123.743 22.002ZM106.936 30L108.801 30L108.801 17.4987L106.936 17.4987L106.936 30Z" fill="#FFFFFF" fill-opacity="1.000000" fill-rule="nonzero"/>
	<path id="Vector" d="M10.4352 7.53802C10.1073 7.93011 9.94177 8.43274 9.97244 8.94293L9.97244 31.059C9.94168 31.5692 10.1072 32.0718 10.4352 32.4638L10.5092 32.5359L22.8982 20.1471L22.8982 19.8548L10.5092 7.46545L10.4352 7.53802Z" fill="url(#paint_linear_2_152_0)" fill-opacity="1.000000" fill-rule="nonzero"/>
	<path id="Vector" d="M27.0276 24.2786L22.8982 20.1472L22.8982 19.8549L27.0286 15.7245L27.1216 15.7776L32.0145 18.5577C33.412 19.3517 33.412 20.6509 32.0145 21.4454L27.1216 24.2255L27.0276 24.2786Z" fill="url(#paint_linear_2_153_0)" fill-opacity="1.000000" fill-rule="nonzero"/>
	<path id="Vector" d="M27.1216 24.2249L22.8982 20.001L10.4352 32.4639C10.72 32.715 11.0837 32.8586 11.4632 32.8699C11.8427 32.8811 12.2142 32.7592 12.5133 32.5253L27.1216 24.2249Z" fill="url(#paint_linear_2_154_0)" fill-opacity="1.000000" fill-rule="nonzero"/>
	<path id="Vector" d="M27.1216 15.777L12.5133 7.47668C12.2142 7.24274 11.8427 7.12085 11.4632 7.13208C11.0837 7.14325 10.72 7.28693 10.4352 7.53802L22.8982 20.001L27.1216 15.777Z" fill="url(#paint_linear_2_155_0)" fill-opacity="1.000000" fill-rule="nonzero"/>
	<g opacity="0.200000">
		<path id="Vector" d="M27.0286 24.1319L12.5133 32.3792C12.2257 32.5981 11.8748 32.7175 11.5133 32.7195C11.1519 32.7214 10.7997 32.6057 10.5097 32.3898L10.4352 32.4644L10.5092 32.5364L10.5097 32.5359C10.7996 32.7519 11.1519 32.8677 11.5133 32.8657C11.8748 32.8638 12.2258 32.7443 12.5133 32.5253L27.1216 24.2249L27.0286 24.1319Z" fill="#1D1D1D" fill-opacity="1.000000" fill-rule="nonzero"/>
	</g>
	<g opacity="0.120000">
		<path id="Vector" d="M10.4352 32.3182C10.1073 31.9261 9.94177 31.4235 9.97241 30.9133L9.97241 31.0594C9.94174 31.5696 10.1073 32.0723 10.4352 32.4644L10.5097 32.3898L10.4352 32.3182Z" fill="#1D1D1D" fill-opacity="1.000000" fill-rule="nonzero"/>
	</g>
	<g opacity="0.120000">
		<path id="Vector" d="M32.0145 21.2987L27.0286 24.1319L27.1216 24.2249L32.0145 21.4448C32.3022 21.3199 32.5513 21.1201 32.7357 20.8663C32.92 20.6124 33.033 20.3137 33.0627 20.0014C33.0009 20.2842 32.8739 20.5488 32.692 20.774C32.5099 20.9991 32.278 21.1788 32.0145 21.2987Z" fill="#1D1D1D" fill-opacity="1.000000" fill-rule="nonzero"/>
	</g>
	<g opacity="0.250000">
		<path id="Vector" d="M12.5134 7.62323L32.0145 18.7032C32.2781 18.823 32.5102 19.0027 32.6921 19.228C32.8741 19.4533 33.001 19.718 33.0627 20.001C33.0332 19.6885 32.9203 19.3897 32.736 19.1357C32.5516 18.8817 32.3024 18.6819 32.0145 18.5571L12.5134 7.47711C11.1158 6.68304 9.97247 7.34259 9.97247 8.94342L9.97247 9.08954C9.97247 7.48883 11.1158 6.82922 12.5134 7.62323Z" fill="#FFFFFF" fill-opacity="1.000000" fill-rule="nonzero"/>
	</g>
</svg>
