<svg width="135.000000" height="40.000122" viewBox="0 0 135 40.0001" fill="none" xmlns="http://www.w3.org/2000/svg" xmlns:xlink="http://www.w3.org/1999/xlink">
	<desc>
			Created with Pixso.
	</desc>
	<defs/>
	<path id="Vector" d="M124.249 0.00012207L10.7567 0.00012207C10.343 0.00012207 9.9342 0.00012207 9.52161 0.00213623C9.17621 0.00415039 8.83356 0.00994873 8.48486 0.0148315C7.72736 0.0227051 6.97156 0.0817871 6.22418 0.191528C5.47778 0.30365 4.75482 0.515076 4.07965 0.818542C3.40533 1.12457 2.78918 1.52228 2.2536 1.99719C1.71515 2.47076 1.2663 3.01813 0.924377 3.61829C0.581482 4.21722 0.343689 4.85907 0.219238 5.52161C0.0936279 6.18329 0.026062 6.85266 0.0170898 7.52362C0.0065918 7.8302 0.00549316 8.13782 0 8.44446L0 31.5587C0.00549316 31.8692 0.0065918 32.17 0.0170898 32.4807C0.026062 33.1516 0.0936279 33.8209 0.219238 34.4825C0.343323 35.1454 0.581116 35.7877 0.924377 36.3868C1.26617 36.985 1.71503 37.5302 2.2536 38.0011C2.78717 38.4781 3.40369 38.8761 4.07965 39.1798C4.75482 39.4841 5.47772 39.6968 6.22418 39.8106C6.97168 39.9195 7.72736 39.9786 8.48486 39.9874C8.83356 39.9943 9.17621 39.9981 9.52161 39.9981C9.9342 40.0001 10.343 40.0001 10.7567 40.0001L124.249 40.0001C124.655 40.0001 125.067 40.0001 125.472 39.9981C125.816 39.9981 126.169 39.9943 126.512 39.9874C127.268 39.9791 128.023 39.9199 128.769 39.8106C129.518 39.696 130.243 39.4834 130.922 39.1798C131.597 38.8759 132.213 38.478 132.746 38.0011C133.283 37.5283 133.733 36.9836 134.079 36.3868C134.42 35.7872 134.655 35.1451 134.777 34.4825C134.903 33.8207 134.973 33.1516 134.987 32.4807C134.991 32.17 134.991 31.8692 134.991 31.5587C135 31.1954 135 30.8341 135 30.4649L135 9.53625C135 9.17004 135 8.80676 134.991 8.44446C134.991 8.13782 134.991 7.8302 134.987 7.52356C134.973 6.85254 134.903 6.18335 134.777 5.52155C134.655 4.85944 134.419 4.21765 134.079 3.61823C133.383 2.41534 132.278 1.43616 130.922 0.81842C130.243 0.515686 129.518 0.304382 128.769 0.191467C128.023 0.0812378 127.269 0.0221558 126.512 0.0147095C126.169 0.00982666 125.816 0.00396729 125.472 0.00201416C125.067 0 124.655 0 124.249 0L124.249 0.00012207Z" fill="#1D1D1D" fill-opacity="1.000000" fill-rule="nonzero"/>
	<path id="Vector" d="M9.42999 39.1282C9.08569 39.1282 8.74969 39.1243 8.40808 39.1175C7.70038 39.1093 6.99432 39.0548 6.29572 38.9543C5.64435 38.855 5.01331 38.6703 4.42346 38.4063C3.83899 38.1445 3.30597 37.8011 2.84467 37.3895C2.37677 36.9827 1.98718 36.5109 1.69141 35.9927C1.39233 35.4712 1.18542 34.9122 1.07776 34.3352C0.961487 33.7151 0.898621 33.0882 0.889587 32.4598C0.882446 32.2488 0.873047 31.5465 0.873047 31.5465L0.873047 8.4411C0.873047 8.4411 0.883057 7.74957 0.889648 7.54639C0.898254 6.91895 0.960815 6.29297 1.07672 5.67389C1.18457 5.09534 1.39166 4.53467 1.69086 4.01147C1.9856 3.49365 2.37299 3.02148 2.83807 2.61322C3.30267 2.20105 3.83746 1.85602 4.42291 1.59052C5.01141 1.32739 5.64124 1.14398 6.29132 1.04651C6.99219 0.945007 7.70068 0.890198 8.41083 0.882385L9.43054 0.870178L125.57 0.870178L126.602 0.882874C127.306 0.890259 128.008 0.944641 128.702 1.04553C129.359 1.14423 129.995 1.32892 130.59 1.59344C131.763 2.12842 132.718 2.97479 133.32 4.01392C133.614 4.53351 133.818 5.08954 133.924 5.66315C134.042 6.28729 134.107 6.91815 134.121 7.55078C134.124 7.83405 134.124 8.13831 134.124 8.4411C134.133 8.81616 134.133 9.17316 134.133 9.53314L134.133 30.4662C134.133 30.8295 134.133 31.1841 134.124 31.5416C134.124 31.8669 134.124 32.1648 134.12 32.4715C134.107 33.0928 134.042 33.7124 133.927 34.3254C133.821 34.9066 133.615 35.4699 133.316 35.9957C133.018 36.5082 132.631 36.976 132.169 37.3817C131.707 37.7956 131.173 38.1409 130.587 38.4044C129.994 38.6705 129.358 38.8558 128.702 38.9543C128.004 39.0553 127.297 39.1099 126.59 39.1175C126.259 39.1243 125.912 39.1282 125.576 39.1282L124.351 39.1302L9.42999 39.1282Z" fill="#000000" fill-opacity="1.000000" fill-rule="nonzero"/>
	<path id="&lt;Path&gt;" d="M32.7973 20.3008C32.808 19.4662 33.0298 18.6478 33.4418 17.9218C33.8538 17.1959 34.4427 16.5859 35.1539 16.1487C34.7021 15.5036 34.1062 14.9727 33.4134 14.5981C32.7205 14.2236 31.9499 14.0157 31.1627 13.9911C29.4835 13.8148 27.8555 14.9959 26.9998 14.9959C26.1276 14.9959 24.8101 14.0086 23.3913 14.0378C22.4736 14.0674 21.5793 14.3343 20.7954 14.8123C20.0115 15.2904 19.3649 15.9633 18.9184 16.7656C16.9844 20.1141 18.427 25.0351 20.2796 27.7417C21.2065 29.0671 22.2898 30.5475 23.7072 30.495C25.0943 30.4375 25.6123 29.6105 27.2866 29.6105C28.9454 29.6105 29.4314 30.495 30.8776 30.4616C32.366 30.4375 33.3038 29.1304 34.1981 27.7925C34.8641 26.8481 35.3766 25.8044 35.7166 24.7C34.8519 24.3342 34.114 23.7221 33.5948 22.9398C33.0757 22.1575 32.7983 21.2397 32.7973 20.3008Z" fill="#FFFFFF" fill-opacity="1.000000" fill-rule="nonzero"/>
	<path id="&lt;Path&gt;" d="M30.0658 12.211C30.8773 11.2368 31.2771 9.98462 31.1803 8.7204C29.9404 8.85065 28.7952 9.44318 27.9727 10.38C27.5706 10.8376 27.2626 11.3701 27.0663 11.9469C26.8701 12.5236 26.7894 13.1334 26.829 13.7414C27.4492 13.7478 28.0626 13.6133 28.6233 13.3483C29.184 13.0832 29.6772 12.6943 30.0658 12.211Z" fill="#FFFFFF" fill-opacity="1.000000" fill-rule="nonzero"/>
	<path id="Vector" d="M50.3308 27.1397L45.5974 27.1397L44.4607 30.4962L42.4558 30.4962L46.9392 18.0782L49.0222 18.0782L53.5056 30.4962L51.4666 30.4962L50.3308 27.1397ZM46.0876 25.5909L49.8397 25.5909L47.9901 20.1436L47.9383 20.1436L46.0876 25.5909Z" fill="#FFFFFF" fill-opacity="1.000000" fill-rule="nonzero"/>
	<path id="Vector" d="M63.1881 25.9698C63.1881 28.7834 61.6823 30.5909 59.4098 30.5909C58.8342 30.6211 58.2617 30.4885 57.7579 30.2083C57.2541 29.9282 56.8394 29.5118 56.5612 29.007L56.5182 29.007L56.5182 33.4913L54.6598 33.4913L54.6598 21.4425L56.4586 21.4425L56.4586 22.9484L56.4928 22.9484C56.7838 22.4459 57.2055 22.0317 57.7131 21.7499C58.2208 21.468 58.7953 21.3291 59.3756 21.3478C61.6735 21.3478 63.1881 23.1642 63.1881 25.9698ZM61.278 25.9698C61.278 24.1369 60.3307 22.9318 58.8854 22.9318C57.4655 22.9318 56.5104 24.1622 56.5104 25.9698C56.5104 27.7941 57.4655 29.0158 58.8854 29.0158C60.3307 29.0158 61.278 27.8195 61.278 25.9698Z" fill="#FFFFFF" fill-opacity="1.000000" fill-rule="nonzero"/>
	<path id="Vector" d="M73.153 25.9698C73.153 28.7833 71.6471 30.5909 69.3746 30.5909C68.799 30.6211 68.2265 30.4885 67.7227 30.2083C67.2189 29.9282 66.8042 29.5118 66.5261 29.007L66.483 29.007L66.483 33.4913L64.6246 33.4913L64.6246 21.4425L66.4235 21.4425L66.4235 22.9484L66.4576 22.9484C66.7486 22.4459 67.1703 22.0317 67.678 21.7499C68.1856 21.468 68.7601 21.3291 69.3405 21.3478C71.6383 21.3478 73.153 23.1642 73.153 25.9698ZM71.2428 25.9698C71.2428 24.1368 70.2955 22.9318 68.8502 22.9318C67.4303 22.9318 66.4752 24.1622 66.4752 25.9698C66.4752 27.7941 67.4303 29.0157 68.8502 29.0157C70.2955 29.0157 71.2429 27.8195 71.2429 25.9698L71.2428 25.9698Z" fill="#FFFFFF" fill-opacity="1.000000" fill-rule="nonzero"/>
	<path id="Vector" d="M79.7389 27.0363C79.8766 28.2677 81.0729 29.0762 82.7076 29.0762C84.2741 29.0762 85.401 28.2676 85.401 27.1573C85.401 26.1934 84.7213 25.6163 83.1119 25.2208L81.5026 24.8331C79.2224 24.2823 78.1637 23.2159 78.1637 21.4854C78.1637 19.3428 80.0309 17.8712 82.6823 17.8712C85.3063 17.8712 87.1051 19.3428 87.1656 21.4854L85.2897 21.4854C85.1774 20.2462 84.153 19.4981 82.6559 19.4981C81.1588 19.4981 80.1344 20.2549 80.1344 21.3565C80.1344 22.2344 80.7887 22.751 82.3893 23.1465L83.7574 23.4825C86.3053 24.085 87.3639 25.1085 87.3639 26.9248C87.3639 29.248 85.5133 30.7031 82.5699 30.7031C79.816 30.7031 77.9567 29.2822 77.8365 27.0361L79.7389 27.0363Z" fill="#FFFFFF" fill-opacity="1.000000" fill-rule="nonzero"/>
	<path id="Vector" d="M91.3748 19.2999L91.3748 21.4425L93.0964 21.4425L93.0964 22.9142L91.3748 22.9142L91.3748 27.9054C91.3748 28.6808 91.7195 29.0421 92.4763 29.0421C92.6807 29.0386 92.8848 29.0242 93.0876 28.9991L93.0876 30.462C92.7474 30.5256 92.4015 30.5544 92.0554 30.548C90.2224 30.548 89.5076 29.8594 89.5076 28.1036L89.5076 22.9142L88.1912 22.9142L88.1912 21.4425L89.5076 21.4425L89.5076 19.2999L91.3748 19.2999Z" fill="#FFFFFF" fill-opacity="1.000000" fill-rule="nonzero"/>
	<path id="Vector" d="M94.0935 25.9698C94.0935 23.1212 95.7712 21.3312 98.3875 21.3312C101.012 21.3312 102.682 23.1212 102.682 25.9698C102.682 28.8263 101.021 30.6085 98.3875 30.6085C95.7546 30.6085 94.0935 28.8263 94.0935 25.9698ZM100.789 25.9698C100.789 24.0157 99.8933 22.8624 98.3875 22.8624C96.8816 22.8624 95.9871 24.0245 95.9871 25.9698C95.9871 27.9318 96.8816 29.0763 98.3875 29.0763C99.8933 29.0763 100.789 27.9318 100.789 25.9698L100.789 25.9698Z" fill="#FFFFFF" fill-opacity="1.000000" fill-rule="nonzero"/>
	<path id="Vector" d="M104.215 21.4425L105.987 21.4425L105.987 22.9835L106.03 22.9835C106.15 22.5022 106.432 22.0769 106.828 21.779C107.225 21.4811 107.712 21.3289 108.208 21.3478C108.422 21.347 108.635 21.3703 108.844 21.4171L108.844 23.1554C108.574 23.0728 108.292 23.0349 108.01 23.0431C107.74 23.0321 107.47 23.0797 107.221 23.1826C106.971 23.2855 106.746 23.4412 106.562 23.6392C106.378 23.837 106.239 24.0724 106.155 24.329C106.07 24.5857 106.042 24.8576 106.073 25.1261L106.073 30.4962L104.215 30.4962L104.215 21.4425Z" fill="#FFFFFF" fill-opacity="1.000000" fill-rule="nonzero"/>
	<path id="Vector" d="M117.413 27.837C117.163 29.4806 115.562 30.6085 113.514 30.6085C110.881 30.6085 109.246 28.8439 109.246 26.0128C109.246 23.173 110.889 21.3312 113.436 21.3312C115.941 21.3312 117.516 23.0519 117.516 25.797L117.516 26.4337L111.122 26.4337L111.122 26.546C111.092 26.8792 111.134 27.2149 111.244 27.5307C111.354 27.8466 111.531 28.1354 111.761 28.3779C111.991 28.6204 112.271 28.8112 112.58 28.9375C112.89 29.0638 113.223 29.1227 113.557 29.1105C113.997 29.1516 114.437 29.0499 114.814 28.8204C115.191 28.591 115.483 28.2461 115.648 27.837L117.413 27.837ZM111.131 25.1349L115.657 25.1349C115.674 24.8353 115.628 24.5355 115.524 24.2543C115.419 23.9731 115.257 23.7166 115.049 23.5007C114.84 23.285 114.589 23.1147 114.312 23.0004C114.034 22.8862 113.736 22.8306 113.436 22.837C113.134 22.8352 112.834 22.8934 112.554 23.0081C112.274 23.1229 112.019 23.2919 111.805 23.5056C111.59 23.7192 111.42 23.9731 111.305 24.2528C111.189 24.5325 111.13 24.8323 111.131 25.1349L111.131 25.1349Z" fill="#FFFFFF" fill-opacity="1.000000" fill-rule="nonzero"/>
	<path id="Vector" d="M45.8546 8.73108C46.2442 8.70312 46.6352 8.76196 46.9993 8.90338C47.3634 9.04486 47.6916 9.26532 47.9602 9.54895C48.2288 9.83258 48.431 10.1722 48.5525 10.5435C48.6739 10.9148 48.7114 11.3084 48.6622 11.6959C48.6622 13.6022 47.632 14.6979 45.8546 14.6979L43.6993 14.6979L43.6993 8.73108L45.8546 8.73108ZM44.6261 13.8541L45.7511 13.8541C46.0295 13.8707 46.3081 13.8251 46.5667 13.7205C46.8252 13.6158 47.0571 13.4549 47.2457 13.2493C47.4341 13.0438 47.5744 12.7988 47.6562 12.5321C47.7382 12.2655 47.7595 11.984 47.7189 11.7081C47.7566 11.4332 47.733 11.1534 47.6499 10.8888C47.5668 10.6241 47.4261 10.3812 47.2381 10.1772C47.05 9.97327 46.8192 9.81348 46.5621 9.70923C46.3051 9.60498 46.0281 9.5589 45.7511 9.57428L44.6261 9.57428L44.6261 13.8541Z" fill="#FFFFFF" fill-opacity="1.000000" fill-rule="nonzero"/>
	<path id="Vector" d="M49.7092 12.4444C49.6808 12.1485 49.7147 11.8499 49.8085 11.5679C49.9023 11.2858 50.0541 11.0264 50.2541 10.8065C50.454 10.5865 50.6977 10.4107 50.9695 10.2905C51.2414 10.1702 51.5354 10.108 51.8327 10.108C52.1299 10.108 52.424 10.1702 52.6958 10.2905C52.9677 10.4107 53.2114 10.5865 53.4113 10.8065C53.6112 11.0264 53.763 11.2858 53.8568 11.5679C53.9507 11.8499 53.9845 12.1485 53.9562 12.4444C53.985 12.7407 53.9516 13.0396 53.858 13.3221C53.7644 13.6047 53.6127 13.8645 53.4128 14.0849C53.2128 14.3053 52.9689 14.4814 52.6968 14.602C52.4246 14.7225 52.1303 14.7848 51.8327 14.7848C51.535 14.7848 51.2407 14.7225 50.9686 14.602C50.6965 14.4814 50.4526 14.3053 50.2526 14.0849C50.0526 13.8645 49.9009 13.6047 49.8073 13.3221C49.7137 13.0396 49.6803 12.7407 49.7092 12.4444ZM53.0421 12.4444C53.0421 11.4683 52.6036 10.8975 51.8342 10.8975C51.0617 10.8975 50.6271 11.4683 50.6271 12.4444C50.6271 13.4283 51.0617 13.9947 51.8342 13.9947C52.6037 13.9947 53.0422 13.4244 53.0422 12.4444L53.0421 12.4444Z" fill="#FFFFFF" fill-opacity="1.000000" fill-rule="nonzero"/>
	<path id="Vector" d="M59.6017 14.6979L58.6798 14.6979L57.7491 11.3815L57.6788 11.3815L56.7521 14.6979L55.839 14.6979L54.5978 10.1949L55.4991 10.1949L56.3058 13.6309L56.3722 13.6309L57.298 10.1949L58.1505 10.1949L59.0763 13.6309L59.1466 13.6309L59.9493 10.1949L60.838 10.1949L59.6017 14.6979Z" fill="#FFFFFF" fill-opacity="1.000000" fill-rule="nonzero"/>
	<path id="Vector" d="M61.882 10.1949L62.7374 10.1949L62.7374 10.9102L62.8038 10.9102C62.9165 10.6533 63.1065 10.4379 63.3474 10.2941C63.5883 10.1503 63.868 10.0852 64.1476 10.108C64.3667 10.0915 64.5867 10.1245 64.7913 10.2046C64.9959 10.2847 65.1798 10.4098 65.3295 10.5707C65.4792 10.7315 65.5908 10.924 65.656 11.1338C65.7212 11.3436 65.7383 11.5654 65.7062 11.7828L65.7062 14.6978L64.8175 14.6978L64.8175 12.0059C64.8175 11.2823 64.5031 10.9224 63.8458 10.9224C63.6971 10.9155 63.5486 10.9408 63.4105 10.9966C63.2725 11.0524 63.1481 11.1375 63.046 11.2458C62.9438 11.3542 62.8664 11.4835 62.8188 11.6246C62.7713 11.7657 62.7549 11.9154 62.7706 12.0635L62.7706 14.6978L61.882 14.6978L61.882 10.1949Z" fill="#FFFFFF" fill-opacity="1.000000" fill-rule="nonzero"/>
	<path id="Vector" d="M67.1222 8.43713L68.0109 8.43713L68.0109 14.6979L67.1222 14.6979L67.1222 8.43713Z" fill="#FFFFFF" fill-opacity="1.000000" fill-rule="nonzero"/>
	<path id="Vector" d="M69.2462 12.4445C69.218 12.1486 69.2518 11.85 69.3457 11.5679C69.4395 11.2858 69.5913 11.0265 69.7913 10.8065C69.9913 10.5865 70.235 10.4107 70.5068 10.2905C70.7787 10.1702 71.0727 10.108 71.37 10.108C71.6673 10.108 71.9613 10.1702 72.2332 10.2905C72.5051 10.4107 72.7488 10.5865 72.9487 10.8065C73.1487 11.0265 73.3005 11.2858 73.3943 11.5679C73.4882 11.85 73.5221 12.1486 73.4938 12.4445C73.5226 12.7407 73.4891 13.0397 73.3955 13.3223C73.3019 13.6047 73.1502 13.8646 72.9502 14.085C72.7502 14.3054 72.5062 14.4815 72.2341 14.6021C71.962 14.7226 71.6677 14.7849 71.37 14.7849C71.0724 14.7849 70.778 14.7226 70.5059 14.6021C70.2338 14.4815 69.9899 14.3054 69.7899 14.085C69.5898 13.8646 69.4382 13.6047 69.3445 13.3223C69.2509 13.0397 69.2174 12.7407 69.2462 12.4445ZM72.5792 12.4445C72.5792 11.4684 72.1407 10.8976 71.3712 10.8976C70.5988 10.8976 70.1642 11.4684 70.1642 12.4445C70.1642 13.4284 70.5988 13.9948 71.3712 13.9948C72.1407 13.9948 72.5792 13.4245 72.5792 12.4445L72.5792 12.4445Z" fill="#FFFFFF" fill-opacity="1.000000" fill-rule="nonzero"/>
	<path id="Vector" d="M74.4293 13.4244C74.4293 12.6139 75.0328 12.1466 76.1041 12.0802L77.3239 12.0099L77.3239 11.6212C77.3239 11.1456 77.0094 10.8771 76.402 10.8771C75.9059 10.8771 75.5621 11.0592 75.4635 11.3776L74.6031 11.3776C74.694 10.6041 75.4215 10.108 76.443 10.108C77.5719 10.108 78.2086 10.67 78.2086 11.6212L78.2086 14.6979L77.3531 14.6979L77.3531 14.0651L77.2828 14.0651C77.1401 14.2921 76.9397 14.4771 76.7021 14.6013C76.4645 14.7255 76.1981 14.7844 75.9303 14.772C75.7413 14.7917 75.5502 14.7715 75.3694 14.7128C75.1887 14.6542 75.0222 14.5582 74.8808 14.4313C74.7394 14.3043 74.6262 14.1491 74.5484 13.9757C74.4706 13.8022 74.4301 13.6145 74.4293 13.4244ZM77.3239 13.0397L77.3239 12.6632L76.2242 12.7335C75.6041 12.775 75.3229 12.986 75.3229 13.3829C75.3229 13.7882 75.6744 14.024 76.1578 14.024C76.2995 14.0384 76.4426 14.024 76.5786 13.982C76.7146 13.9399 76.8408 13.8708 76.9495 13.7791C77.0583 13.6872 77.1475 13.5744 77.2119 13.4474C77.2761 13.3204 77.3142 13.1817 77.3239 13.0397Z" fill="#FFFFFF" fill-opacity="1.000000" fill-rule="nonzero"/>
	<path id="Vector" d="M79.3766 12.4445C79.3766 11.0216 80.108 10.1202 81.2457 10.1202C81.5272 10.1073 81.8065 10.1747 82.051 10.3146C82.2955 10.4545 82.4951 10.6611 82.6266 10.9103L82.693 10.9103L82.693 8.43713L83.5817 8.43713L83.5817 14.6979L82.7301 14.6979L82.7301 13.9865L82.6598 13.9865C82.5182 14.2339 82.3116 14.438 82.0623 14.5765C81.813 14.7149 81.5307 14.7826 81.2457 14.7721C80.1002 14.7722 79.3766 13.8707 79.3766 12.4445ZM80.2946 12.4445C80.2946 13.3995 80.7448 13.9742 81.4977 13.9742C82.2467 13.9742 82.7096 13.3912 82.7096 12.4484C82.7096 11.5099 82.2419 10.9186 81.4977 10.9186C80.7496 10.9186 80.2946 11.4972 80.2946 12.4445L80.2946 12.4445Z" fill="#FFFFFF" fill-opacity="1.000000" fill-rule="nonzero"/>
	<path id="Vector" d="M87.2585 12.4444C87.2302 12.1485 87.264 11.8499 87.3578 11.5679C87.4517 11.2858 87.6035 11.0264 87.8034 10.8065C88.0033 10.5865 88.247 10.4107 88.5189 10.2905C88.7907 10.1702 89.0847 10.108 89.382 10.108C89.6793 10.108 89.9733 10.1702 90.2451 10.2905C90.517 10.4107 90.7607 10.5865 90.9606 10.8065C91.1605 11.0264 91.3123 11.2858 91.4061 11.5679C91.5 11.8499 91.5338 12.1485 91.5056 12.4444C91.5344 12.7407 91.5009 13.0396 91.4073 13.3221C91.3137 13.6047 91.162 13.8645 90.9621 14.0849C90.7621 14.3053 90.5182 14.4814 90.2461 14.602C89.9739 14.7225 89.6796 14.7848 89.382 14.7848C89.0844 14.7848 88.79 14.7225 88.5179 14.602C88.2458 14.4814 88.0019 14.3053 87.8019 14.0849C87.6019 13.8645 87.4503 13.6047 87.3566 13.3221C87.2631 13.0396 87.2296 12.7407 87.2585 12.4444ZM90.5914 12.4444C90.5914 11.4683 90.153 10.8975 89.3835 10.8975C88.611 10.8975 88.1765 11.4683 88.1765 12.4444C88.1765 13.4283 88.611 13.9947 89.3835 13.9947C90.153 13.9947 90.5914 13.4244 90.5914 12.4444Z" fill="#FFFFFF" fill-opacity="1.000000" fill-rule="nonzero"/>
	<path id="Vector" d="M92.6979 10.1949L93.5533 10.1949L93.5533 10.9102L93.6198 10.9102C93.7324 10.6533 93.9224 10.4379 94.1633 10.2941C94.4042 10.1503 94.6839 10.0852 94.9635 10.108C95.1826 10.0915 95.4026 10.1245 95.6072 10.2046C95.8118 10.2847 95.9957 10.4098 96.1454 10.5707C96.2951 10.7315 96.4067 10.924 96.4719 11.1338C96.5371 11.3436 96.5543 11.5654 96.5221 11.7828L96.5221 14.6978L95.6334 14.6978L95.6334 12.0059C95.6334 11.2823 95.319 10.9224 94.6617 10.9224C94.513 10.9155 94.3645 10.9408 94.2264 10.9966C94.0884 11.0524 93.9641 11.1375 93.8619 11.2458C93.7598 11.3542 93.6823 11.4835 93.6348 11.6246C93.5872 11.7657 93.5708 11.9154 93.5865 12.0635L93.5865 14.6978L92.6979 14.6978L92.6979 10.1949Z" fill="#FFFFFF" fill-opacity="1.000000" fill-rule="nonzero"/>
	<path id="Vector" d="M101.544 9.07385L101.544 10.2155L102.519 10.2155L102.519 10.964L101.544 10.964L101.544 13.2794C101.544 13.7511 101.738 13.9576 102.18 13.9576C102.294 13.9573 102.407 13.9504 102.519 13.9371L102.519 14.6774C102.36 14.7059 102.198 14.7211 102.036 14.7228C101.047 14.7228 100.654 14.3751 100.654 13.507L100.654 10.9639L99.9391 10.9639L99.9391 10.2154L100.654 10.2154L100.654 9.07385L101.544 9.07385Z" fill="#FFFFFF" fill-opacity="1.000000" fill-rule="nonzero"/>
	<path id="Vector" d="M103.733 8.43713L104.614 8.43713L104.614 10.9186L104.684 10.9186C104.802 10.6592 104.998 10.4427 105.243 10.2983C105.489 10.154 105.773 10.0889 106.057 10.1119C106.275 10.1001 106.493 10.1365 106.695 10.2185C106.898 10.3005 107.079 10.4262 107.227 10.5865C107.376 10.7469 107.486 10.9379 107.552 11.1461C107.618 11.3542 107.637 11.5743 107.608 11.7906L107.608 14.6979L106.718 14.6979L106.718 12.0099C106.718 11.2906 106.383 10.9264 105.756 10.9264C105.603 10.9139 105.449 10.9349 105.305 10.9879C105.162 11.041 105.031 11.1248 104.923 11.2335C104.815 11.3423 104.732 11.4733 104.68 11.6174C104.628 11.7615 104.608 11.9153 104.622 12.068L104.622 14.6979L103.733 14.6979L103.733 8.43713Z" fill="#FFFFFF" fill-opacity="1.000000" fill-rule="nonzero"/>
	<path id="Vector" d="M112.79 13.4821C112.669 13.8936 112.407 14.2496 112.051 14.4877C111.694 14.7259 111.265 14.8311 110.839 14.7848C110.542 14.7926 110.247 14.7358 109.975 14.6183C109.702 14.5007 109.458 14.3253 109.26 14.1042C109.063 13.8831 108.915 13.6215 108.828 13.3376C108.742 13.0538 108.718 12.7546 108.758 12.4606C108.719 12.1657 108.743 11.8658 108.83 11.5811C108.916 11.2964 109.063 11.0336 109.26 10.8106C109.457 10.5875 109.699 10.4094 109.971 10.2881C110.243 10.1669 110.537 10.1055 110.835 10.108C112.088 10.108 112.843 10.9641 112.843 12.3781L112.843 12.6881L109.664 12.6881L109.664 12.7379C109.65 12.9032 109.671 13.0695 109.725 13.2263C109.779 13.383 109.865 13.5267 109.978 13.6482C110.091 13.7697 110.228 13.8661 110.38 13.9316C110.533 13.9969 110.697 14.0298 110.863 14.028C111.076 14.0535 111.291 14.0152 111.482 13.918C111.672 13.8207 111.83 13.669 111.934 13.4821L112.79 13.4821ZM109.664 12.0309L111.938 12.0309C111.949 11.8798 111.929 11.728 111.878 11.5853C111.827 11.4425 111.747 11.3121 111.642 11.2022C111.538 11.0923 111.412 11.0056 111.272 10.9474C111.132 10.8892 110.981 10.8609 110.83 10.8644C110.676 10.8625 110.523 10.8913 110.381 10.9493C110.239 11.0072 110.109 11.0931 110.001 11.2018C109.892 11.3105 109.806 11.4399 109.748 11.5823C109.691 11.7247 109.662 11.8772 109.664 12.0309L109.664 12.0309Z" fill="#FFFFFF" fill-opacity="1.000000" fill-rule="nonzero"/>
</svg>
