<svg width="15.000000" height="16.666672" viewBox="0 0 15 16.6667" fill="none" xmlns="http://www.w3.org/2000/svg" xmlns:xlink="http://www.w3.org/1999/xlink">
	<desc>
			Created with Pixso.
	</desc>
	<defs/>
	<path id="Vector" d="M3.33337 8.33333L5 8.33333L5 10L3.33337 10L3.33337 8.33333ZM15 3.33333L15 15C15 15.442 14.8245 15.866 14.5118 16.1785C14.1993 16.4911 13.7754 16.6667 13.3334 16.6667L1.66663 16.6667C0.741699 16.6667 0 15.9167 0 15L0 3.33333C0 2.89131 0.175537 2.46738 0.488159 2.15482C0.800659 1.84225 1.22461 1.66667 1.66663 1.66667L2.5 1.66667L2.5 0L4.16663 0L4.16663 1.66667L10.8334 1.66667L10.8334 0L12.5 0L12.5 1.66667L13.3334 1.66667C13.7754 1.66667 14.1993 1.84225 14.5118 2.15482C14.8245 2.46738 15 2.89131 15 3.33333ZM1.66663 5L13.3334 5L13.3334 3.33333L1.66663 3.33333L1.66663 5ZM13.3334 15L13.3334 6.66667L1.66663 6.66667L1.66663 15L13.3334 15ZM10 10L10 8.33333L11.6666 8.33333L11.6666 10L10 10ZM6.66663 10L6.66663 8.33333L8.33337 8.33333L8.33337 10L6.66663 10ZM3.33337 11.6667L5 11.6667L5 13.3333L3.33337 13.3333L3.33337 11.6667ZM10 13.3333L10 11.6667L11.6666 11.6667L11.6666 13.3333L10 13.3333ZM6.66663 13.3333L6.66663 11.6667L8.33337 11.6667L8.33337 13.3333L6.66663 13.3333Z" fill="#2D3748" fill-opacity="0.320000" fill-rule="nonzero"/>
</svg>
